# xmcd CD database file
#
# Track frame offsets:
#	150
#	15445
#	31088
#	47108
#	63462
#	78828
#	93744
#	106778
#	121095
#	136730
#	153332
#	167133
#
# Disc length: 2481 seconds
#
# Revision: 0
# Processed by: cddbd v1.5.2PL0 Copyright (c) Steve Scherf et al.
# Submitted via: CDex 1.50Beta7
#
DISCID=8709af0c
DTITLE=Junior e Marcos - Junior e Marcos
DYEAR=2005
DGENRE=Country
TTITLE0=É ISSO QUE A GALERA QUER
TTITLE1=TÃO FORTE
TTITLE2=LÁGRIMAS
TTITLE3=TALVEZ
TTITLE4=SEGREDO DE PAIXÃO
TTITLE5=ESSE AMOR NÃO TEM MAIS JEITO
TTITLE6=COWBOY VIOLEIRO
TTITLE7=NADA VALEU
TTITLE8=VIOLA E CANTADOR
TTITLE9=JOGO DE AMOR
TTITLE10=SAUDADE É COISA BRUTA
TTITLE11=PEDINDO AMOR
EXTD=YEAR: 2005
EXTT0=
EXTT1=
EXTT2=
EXTT3=
EXTT4=
EXTT5=
EXTT6=
EXTT7=
EXTT8=
EXTT9=
EXTT10=
EXTT11=
PLAYORDER=
